# xmcd CD database file generated by Grip 2.96
# 
# Track frame offsets:
#       160
#       10722
#       20125
#       34052
#       46440
#       59777
#       73210
#       85937
#       101067
#       115050
#       130357
#       142730
#       157442
#       171405
#       184967
#       196452
#       210640
#       223975
#       237455
# 
# Disc length: 3342 seconds
# 
# Revision: 0
# Processed by: cddbd v1.4PL0 Copyright (c) Steve Scherf et al.
# Submitted via: Grip 2.96
# 
DISCID=2f0d0c13
DTITLE=John Lee Hooker - John Lee Hooker, The Chess Masters
DYEAR=1900
DGENRE=
TTITLE0=Mad man blues
TTITLE1=Hey boogie
TTITLE2=Louise
TTITLE3=High priced woman
TTITLE4=Union station blues
TTITLE5=Ground hog blues
TTITLE6=Leave my wife alone
TTITLE7=Ramblin' by myself
TTITLE8=Dreamin' blues
TTITLE9=Just me and my telephone
TTITLE10=Walkin' the boogie
TTITLE11=Sugar mama
TTITLE12=I don't want your money
TTITLE13=Love blues
TTITLE14=Please don't go
TTITLE15=Worried life blues
TTITLE16=Down at the landing
TTITLE17=It's my own fault
TTITLE18=Women and money
EXTD=
EXTT0=
EXTT1=
EXTT2=
EXTT3=
EXTT4=
EXTT5=
EXTT6=
EXTT7=
EXTT8=
EXTT9=
EXTT10=
EXTT11=
EXTT12=
EXTT13=
EXTT14=
EXTT15=
EXTT16=
EXTT17=
EXTT18=
PLAYORDER=
